<svg xmlns="http://www.w3.org/2000/svg" width="216" height="200" viewBox="0 0 216 200" version="1.1">
	<path d="M 164.491 10.865 C 155.066 15.147, 150.963 24.607, 154.785 33.246 C 157.656 39.738, 162.784 43.284, 170.061 43.811 C 177.791 44.370, 180.287 43.639, 184.908 39.464 C 189.846 35.003, 191.374 31.245, 190.777 25.031 C 189.614 12.928, 176.046 5.616, 164.491 10.865 M 14.193 25.124 L 14.500 29.249 21.084 30.901 C 29.630 33.045, 32.754 35.144, 33.499 39.242 C 33.825 41.034, 33.959 64.402, 33.796 91.170 L 33.500 139.840 31.141 142.351 C 29.701 143.883, 27.169 145.109, 24.641 145.497 C 13.253 147.244, 14 146.850, 14 151.111 L 14 155 75.857 155 L 137.714 155 138.343 145.250 C 138.690 139.887, 139.270 130.213, 139.633 123.750 L 140.294 112 136.397 112.012 L 132.500 112.025 127.192 122.346 C 124.272 128.023, 119.890 134.946, 117.454 137.731 C 111.874 144.110, 107.389 145.365, 90 145.414 C 75.645 145.454, 72.476 144.450, 69.752 138.999 C 68.158 135.810, 68.003 131.142, 68.002 86.385 C 68 38.710, 68.059 37.195, 70.009 34.716 C 72.047 32.125, 78.825 30, 85.049 30 C 87.880 30, 88 29.817, 88 25.500 L 88 21 50.943 21 L 13.885 21 14.193 25.124 M 162 61.412 L 142.500 62.500 142.500 66.455 C 142.500 70.227, 142.676 70.447, 146.282 71.196 C 151.954 72.375, 155.790 74.694, 157.483 77.967 C 158.740 80.398, 159 86.032, 159 110.815 C 159 139.463, 158.913 140.841, 156.949 143.337 C 155.429 145.270, 153.618 146.114, 149.949 146.601 L 145 147.258 145 151.129 L 145 155 175 155 L 205 155 205 151.128 C 205 147.367, 204.882 147.237, 200.894 146.599 C 198.313 146.186, 195.714 144.868, 193.894 143.048 L 191 140.154 191 101.659 C 191 80.486, 190.727 62.452, 190.393 61.582 C 189.707 59.794, 190.880 59.801, 162 61.412 M 8 177.500 L 8 183 108 183 L 208 183 208 177.500 L 208 172 108 172 L 8 172 8 177.500" stroke="none" fill="#000000" fill-rule="evenodd"/>
    <style>
        path { fill: #000; }
        @media (prefers-color-scheme: dark) {
            path { fill: #FFF; }
        }
    </style>
</svg>
